<?xml version="1.0" encoding="utf-8" standalone="no"?>
<!DOCTYPE svg PUBLIC "-//W3C//DTD SVG 1.1//EN"
  "http://www.w3.org/Graphics/SVG/1.1/DTD/svg11.dtd">
<svg xmlns:xlink="http://www.w3.org/1999/xlink" width="350.983997pt" height="223.2pt" viewBox="0 0 350.983997 223.2" xmlns="http://www.w3.org/2000/svg" version="1.1">
 <metadata>
  <rdf:RDF xmlns:dc="http://purl.org/dc/elements/1.1/" xmlns:cc="http://creativecommons.org/ns#" xmlns:rdf="http://www.w3.org/1999/02/22-rdf-syntax-ns#">
   <cc:Work>
    <dc:type rdf:resource="http://purl.org/dc/dcmitype/StillImage"/>
    <dc:date>2026-03-20T12:39:10.095942</dc:date>
    <dc:format>image/svg+xml</dc:format>
    <dc:creator>
     <cc:Agent>
      <dc:title>Matplotlib v3.10.6, https://matplotlib.org/</dc:title>
     </cc:Agent>
    </dc:creator>
   </cc:Work>
  </rdf:RDF>
 </metadata>
 <defs>
  <style type="text/css">*{stroke-linejoin: round; stroke-linecap: butt}</style>
 </defs>
 <g id="figure_1">
  <g id="patch_1">
   <path d="M 0 223.2
L 350.983997 223.2
L 350.983997 0
L 0 0
z
" style="fill: #ffffff"/>
  </g>
  <g id="axes_1">
   <g id="patch_2">
    <path d="M 47.225219 179.84666
L 235.425076 179.84666
L 235.425076 7.2
L 47.225219 7.2
z
" style="fill: #ffffff"/>
   </g>
   <g id="patch_3">
    <path d="M 50.742973 173.788882
L 226.630691 173.788882
L 226.630691 113.211107
L 50.742973 113.211107
z
" clip-path="url(#pe9be34928e)" style="fill: #2ca02c; opacity: 0.25; stroke: #808080; stroke-width: 1.5; stroke-linejoin: miter"/>
   </g>
   <g id="matplotlib.axis_1">
    <g id="xtick_1">
     <g id="line2d_1">
      <defs>
       <path id="m3d1016d151" d="M 0 0
L 0 3.5
" style="stroke: #000000; stroke-width: 0.8"/>
      </defs>
      <g>
       <use xlink:href="#m3d1016d151" x="50.742973" y="179.84666" style="stroke: #000000; stroke-width: 0.8"/>
      </g>
     </g>
     <g id="text_1">
      <!-- $\mathdefault{0.0}$ -->
      <g transform="translate(44.377934 193.765158) scale(0.1 -0.1)">
       <defs>
        <path id="CMR17-30" d="M 2688 2025
C 2688 2416 2682 3080 2413 3591
C 2176 4039 1798 4198 1466 4198
C 1158 4198 768 4058 525 3597
C 269 3118 243 2524 243 2025
C 243 1661 250 1106 448 619
C 723 -39 1216 -128 1466 -128
C 1760 -128 2208 -7 2470 600
C 2662 1042 2688 1559 2688 2025
z
M 1466 -26
C 1056 -26 813 325 723 812
C 653 1188 653 1738 653 2096
C 653 2588 653 2997 736 3387
C 858 3929 1216 4096 1466 4096
C 1728 4096 2067 3923 2189 3400
C 2272 3036 2278 2607 2278 2096
C 2278 1680 2278 1169 2202 792
C 2067 95 1690 -26 1466 -26
z
" transform="scale(0.015625)"/>
        <path id="CMMI12-3a" d="M 1178 307
C 1178 492 1024 619 870 619
C 685 619 557 466 557 313
C 557 128 710 0 864 0
C 1050 0 1178 153 1178 307
z
" transform="scale(0.015625)"/>
       </defs>
       <use xlink:href="#CMR17-30" transform="scale(0.996264)"/>
       <use xlink:href="#CMMI12-3a" transform="translate(45.690477 0) scale(0.996264)"/>
       <use xlink:href="#CMR17-30" transform="translate(72.787654 0) scale(0.996264)"/>
      </g>
     </g>
    </g>
    <g id="xtick_2">
     <g id="line2d_2">
      <g>
       <use xlink:href="#m3d1016d151" x="85.920517" y="179.84666" style="stroke: #000000; stroke-width: 0.8"/>
      </g>
     </g>
     <g id="text_2">
      <!-- $\mathdefault{0.2}$ -->
      <g transform="translate(79.555477 193.765158) scale(0.1 -0.1)">
       <defs>
        <path id="CMR17-32" d="M 2669 989
L 2554 989
C 2490 536 2438 459 2413 420
C 2381 369 1920 369 1830 369
L 602 369
C 832 619 1280 1072 1824 1597
C 2214 1967 2669 2402 2669 3035
C 2669 3790 2067 4224 1395 4224
C 691 4224 262 3604 262 3030
C 262 2780 448 2748 525 2748
C 589 2748 781 2787 781 3010
C 781 3207 614 3264 525 3264
C 486 3264 448 3258 422 3245
C 544 3790 915 4058 1306 4058
C 1862 4058 2227 3617 2227 3035
C 2227 2479 1901 2000 1536 1584
L 262 146
L 262 0
L 2515 0
L 2669 989
z
" transform="scale(0.015625)"/>
       </defs>
       <use xlink:href="#CMR17-30" transform="scale(0.996264)"/>
       <use xlink:href="#CMMI12-3a" transform="translate(45.690477 0) scale(0.996264)"/>
       <use xlink:href="#CMR17-32" transform="translate(72.787654 0) scale(0.996264)"/>
      </g>
     </g>
    </g>
    <g id="xtick_3">
     <g id="line2d_3">
      <g>
       <use xlink:href="#m3d1016d151" x="121.09806" y="179.84666" style="stroke: #000000; stroke-width: 0.8"/>
      </g>
     </g>
     <g id="text_3">
      <!-- $\mathdefault{0.4}$ -->
      <g transform="translate(114.733021 193.765158) scale(0.1 -0.1)">
       <defs>
        <path id="CMR17-34" d="M 2150 4122
C 2150 4256 2144 4256 2029 4256
L 128 1254
L 128 1088
L 1779 1088
L 1779 457
C 1779 224 1766 160 1318 160
L 1197 160
L 1197 0
C 1402 0 1747 0 1965 0
C 2182 0 2528 0 2733 0
L 2733 160
L 2611 160
C 2163 160 2150 224 2150 457
L 2150 1088
L 2803 1088
L 2803 1254
L 2150 1254
L 2150 4122
z
M 1798 3703
L 1798 1254
L 256 1254
L 1798 3703
z
" transform="scale(0.015625)"/>
       </defs>
       <use xlink:href="#CMR17-30" transform="scale(0.996264)"/>
       <use xlink:href="#CMMI12-3a" transform="translate(45.690477 0) scale(0.996264)"/>
       <use xlink:href="#CMR17-34" transform="translate(72.787654 0) scale(0.996264)"/>
      </g>
     </g>
    </g>
    <g id="xtick_4">
     <g id="line2d_4">
      <g>
       <use xlink:href="#m3d1016d151" x="156.275604" y="179.84666" style="stroke: #000000; stroke-width: 0.8"/>
      </g>
     </g>
     <g id="text_4">
      <!-- $\mathdefault{0.6}$ -->
      <g transform="translate(149.910564 193.765158) scale(0.1 -0.1)">
       <defs>
        <path id="CMR17-36" d="M 678 2176
C 678 3690 1395 4032 1811 4032
C 1946 4032 2272 4009 2400 3776
C 2298 3776 2106 3776 2106 3553
C 2106 3381 2246 3323 2336 3323
C 2394 3323 2566 3348 2566 3560
C 2566 3954 2246 4179 1805 4179
C 1043 4179 243 3390 243 1984
C 243 253 966 -128 1478 -128
C 2099 -128 2688 427 2688 1283
C 2688 2081 2170 2662 1517 2662
C 1126 2662 838 2407 678 1960
L 678 2176
z
M 1478 25
C 691 25 691 1200 691 1436
C 691 1896 909 2560 1504 2560
C 1613 2560 1926 2560 2138 2120
C 2253 1870 2253 1609 2253 1289
C 2253 944 2253 690 2118 434
C 1978 171 1773 25 1478 25
z
" transform="scale(0.015625)"/>
       </defs>
       <use xlink:href="#CMR17-30" transform="scale(0.996264)"/>
       <use xlink:href="#CMMI12-3a" transform="translate(45.690477 0) scale(0.996264)"/>
       <use xlink:href="#CMR17-36" transform="translate(72.787654 0) scale(0.996264)"/>
      </g>
     </g>
    </g>
    <g id="xtick_5">
     <g id="line2d_5">
      <g>
       <use xlink:href="#m3d1016d151" x="191.453147" y="179.84666" style="stroke: #000000; stroke-width: 0.8"/>
      </g>
     </g>
     <g id="text_5">
      <!-- $\mathdefault{0.8}$ -->
      <g transform="translate(185.088108 193.765158) scale(0.1 -0.1)">
       <defs>
        <path id="CMR17-38" d="M 1741 2264
C 2144 2467 2554 2773 2554 3263
C 2554 3841 1990 4179 1472 4179
C 890 4179 378 3759 378 3180
C 378 3021 416 2747 666 2505
C 730 2442 998 2251 1171 2130
C 883 1983 211 1634 211 934
C 211 279 838 -128 1459 -128
C 2144 -128 2720 362 2720 1010
C 2720 1590 2330 1857 2074 2029
L 1741 2264
z
M 902 2822
C 851 2854 595 3051 595 3351
C 595 3739 998 4032 1459 4032
C 1965 4032 2336 3676 2336 3262
C 2336 2669 1670 2331 1638 2331
C 1632 2331 1626 2331 1574 2370
L 902 2822
z
M 2080 1519
C 2176 1449 2483 1240 2483 851
C 2483 381 2010 25 1472 25
C 890 25 448 438 448 940
C 448 1443 838 1862 1280 2060
L 2080 1519
z
" transform="scale(0.015625)"/>
       </defs>
       <use xlink:href="#CMR17-30" transform="scale(0.996264)"/>
       <use xlink:href="#CMMI12-3a" transform="translate(45.690477 0) scale(0.996264)"/>
       <use xlink:href="#CMR17-38" transform="translate(72.787654 0) scale(0.996264)"/>
      </g>
     </g>
    </g>
    <g id="xtick_6">
     <g id="line2d_6">
      <g>
       <use xlink:href="#m3d1016d151" x="226.630691" y="179.84666" style="stroke: #000000; stroke-width: 0.8"/>
      </g>
     </g>
     <g id="text_6">
      <!-- $\mathdefault{1.0}$ -->
      <g transform="translate(220.265651 193.765158) scale(0.1 -0.1)">
       <defs>
        <path id="CMR17-31" d="M 1702 4058
C 1702 4192 1696 4192 1606 4192
C 1357 3916 979 3827 621 3827
C 602 3827 570 3827 563 3808
C 557 3795 557 3782 557 3648
C 755 3648 1088 3686 1344 3839
L 1344 461
C 1344 236 1331 160 781 160
L 589 160
L 589 0
C 896 0 1216 0 1523 0
C 1830 0 2150 0 2458 0
L 2458 160
L 2266 160
C 1715 160 1702 230 1702 458
L 1702 4058
z
" transform="scale(0.015625)"/>
       </defs>
       <use xlink:href="#CMR17-31" transform="scale(0.996264)"/>
       <use xlink:href="#CMMI12-3a" transform="translate(45.690477 0) scale(0.996264)"/>
       <use xlink:href="#CMR17-30" transform="translate(72.787654 0) scale(0.996264)"/>
      </g>
     </g>
    </g>
    <g id="text_7">
     <!-- $\tilde{J}$ -->
     <g transform="translate(134.96441 212.511936) scale(0.18 -0.18)">
      <defs>
       <path id="CMR17-7e" d="M 2400 4184
C 2182 3980 2061 3865 1862 3865
C 1722 3865 1626 3932 1491 4024
C 1363 4111 1261 4184 1120 4184
C 890 4184 730 4004 461 3718
L 531 3648
C 749 3850 870 3968 1069 3968
C 1210 3968 1306 3900 1440 3808
C 1568 3722 1670 3648 1811 3648
C 2042 3648 2202 3828 2470 4114
L 2400 4184
z
" transform="scale(0.015625)"/>
       <path id="CMMI12-4a" d="M 3418 3912
C 3469 4103 3482 4167 3795 4167
C 3898 4167 3962 4167 3962 4282
C 3962 4352 3904 4352 3878 4352
C 3770 4352 3648 4352 3533 4352
L 3181 4352
C 2912 4352 2630 4352 2362 4352
C 2304 4352 2227 4352 2227 4237
C 2227 4173 2278 4173 2278 4167
L 2438 4167
C 2950 4167 2950 4116 2950 4020
C 2950 4013 2950 3969 2925 3868
L 2189 960
C 2022 312 1594 0 1286 0
C 1069 0 762 100 685 431
C 710 424 742 418 768 418
C 979 418 1146 603 1146 788
C 1146 890 1082 1024 890 1024
C 774 1024 506 961 506 549
C 506 151 838 -128 1299 -128
C 1882 -128 2509 311 2662 915
L 3418 3912
z
" transform="scale(0.015625)"/>
      </defs>
      <use xlink:href="#CMR17-7e" transform="translate(24.984403 25.189733) scale(0.996264)"/>
      <use xlink:href="#CMMI12-4a" transform="scale(0.996264)"/>
     </g>
    </g>
   </g>
   <g id="matplotlib.axis_2">
    <g id="ytick_1">
     <g id="line2d_7">
      <defs>
       <path id="ma7abfe18ac" d="M 0 0
L -3.5 0
" style="stroke: #000000; stroke-width: 0.8"/>
      </defs>
      <g>
       <use xlink:href="#ma7abfe18ac" x="47.225219" y="173.788882" style="stroke: #000000; stroke-width: 0.8"/>
      </g>
     </g>
     <g id="text_8">
      <!-- $\mathdefault{0.0}$ -->
      <g transform="translate(27.49514 177.248131) scale(0.1 -0.1)">
       <use xlink:href="#CMR17-30" transform="scale(0.996264)"/>
       <use xlink:href="#CMMI12-3a" transform="translate(45.690477 0) scale(0.996264)"/>
       <use xlink:href="#CMR17-30" transform="translate(72.787654 0) scale(0.996264)"/>
      </g>
     </g>
    </g>
    <g id="ytick_2">
     <g id="line2d_8">
      <g>
       <use xlink:href="#ma7abfe18ac" x="47.225219" y="143.499994" style="stroke: #000000; stroke-width: 0.8"/>
      </g>
     </g>
     <g id="text_9">
      <!-- $\mathdefault{0.1}$ -->
      <g transform="translate(27.49514 146.959244) scale(0.1 -0.1)">
       <use xlink:href="#CMR17-30" transform="scale(0.996264)"/>
       <use xlink:href="#CMMI12-3a" transform="translate(45.690477 0) scale(0.996264)"/>
       <use xlink:href="#CMR17-31" transform="translate(72.787654 0) scale(0.996264)"/>
      </g>
     </g>
    </g>
    <g id="ytick_3">
     <g id="line2d_9">
      <g>
       <use xlink:href="#ma7abfe18ac" x="47.225219" y="113.211107" style="stroke: #000000; stroke-width: 0.8"/>
      </g>
     </g>
     <g id="text_10">
      <!-- $\mathdefault{0.2}$ -->
      <g transform="translate(27.49514 116.670356) scale(0.1 -0.1)">
       <use xlink:href="#CMR17-30" transform="scale(0.996264)"/>
       <use xlink:href="#CMMI12-3a" transform="translate(45.690477 0) scale(0.996264)"/>
       <use xlink:href="#CMR17-32" transform="translate(72.787654 0) scale(0.996264)"/>
      </g>
     </g>
    </g>
    <g id="ytick_4">
     <g id="line2d_10">
      <g>
       <use xlink:href="#ma7abfe18ac" x="47.225219" y="82.922219" style="stroke: #000000; stroke-width: 0.8"/>
      </g>
     </g>
     <g id="text_11">
      <!-- $\mathdefault{0.3}$ -->
      <g transform="translate(27.49514 86.381468) scale(0.1 -0.1)">
       <defs>
        <path id="CMR17-33" d="M 1414 2157
C 1984 2157 2234 1662 2234 1090
C 2234 320 1824 25 1453 25
C 1114 25 563 194 390 693
C 422 680 454 680 486 680
C 640 680 755 782 755 948
C 755 1133 614 1216 486 1216
C 378 1216 211 1165 211 926
C 211 335 787 -128 1466 -128
C 2176 -128 2720 430 2720 1085
C 2720 1707 2208 2157 1600 2227
C 2086 2328 2554 2756 2554 3329
C 2554 3820 2048 4179 1472 4179
C 890 4179 378 3829 378 3329
C 378 3110 544 3072 627 3072
C 762 3072 877 3155 877 3321
C 877 3486 762 3569 627 3569
C 602 3569 570 3569 544 3557
C 730 3959 1235 4032 1459 4032
C 1683 4032 2106 3925 2106 3320
C 2106 3143 2080 2828 1862 2550
C 1670 2304 1453 2304 1242 2284
C 1210 2284 1062 2269 1037 2269
C 992 2263 966 2257 966 2208
C 966 2163 973 2157 1101 2157
L 1414 2157
z
" transform="scale(0.015625)"/>
       </defs>
       <use xlink:href="#CMR17-30" transform="scale(0.996264)"/>
       <use xlink:href="#CMMI12-3a" transform="translate(45.690477 0) scale(0.996264)"/>
       <use xlink:href="#CMR17-33" transform="translate(72.787654 0) scale(0.996264)"/>
      </g>
     </g>
    </g>
    <g id="ytick_5">
     <g id="line2d_11">
      <g>
       <use xlink:href="#ma7abfe18ac" x="47.225219" y="52.633331" style="stroke: #000000; stroke-width: 0.8"/>
      </g>
     </g>
     <g id="text_12">
      <!-- $\mathdefault{0.4}$ -->
      <g transform="translate(27.49514 56.092581) scale(0.1 -0.1)">
       <use xlink:href="#CMR17-30" transform="scale(0.996264)"/>
       <use xlink:href="#CMMI12-3a" transform="translate(45.690477 0) scale(0.996264)"/>
       <use xlink:href="#CMR17-34" transform="translate(72.787654 0) scale(0.996264)"/>
      </g>
     </g>
    </g>
    <g id="ytick_6">
     <g id="line2d_12">
      <g>
       <use xlink:href="#ma7abfe18ac" x="47.225219" y="22.344444" style="stroke: #000000; stroke-width: 0.8"/>
      </g>
     </g>
     <g id="text_13">
      <!-- $\mathdefault{0.5}$ -->
      <g transform="translate(27.49514 25.803693) scale(0.1 -0.1)">
       <defs>
        <path id="CMR17-35" d="M 730 3692
C 794 3666 1056 3584 1325 3584
C 1920 3584 2246 3911 2432 4100
C 2432 4157 2432 4192 2394 4192
C 2387 4192 2374 4192 2323 4163
C 2099 4058 1837 3973 1517 3973
C 1325 3973 1037 3999 723 4139
C 653 4171 640 4171 634 4171
C 602 4171 595 4164 595 4037
L 595 2203
C 595 2089 595 2057 659 2057
C 691 2057 704 2070 736 2114
C 941 2401 1222 2522 1542 2522
C 1766 2522 2246 2382 2246 1289
C 2246 1085 2246 715 2054 421
C 1894 159 1645 25 1370 25
C 947 25 518 320 403 814
C 429 807 480 795 506 795
C 589 795 749 840 749 1038
C 749 1210 627 1280 506 1280
C 358 1280 262 1190 262 1011
C 262 454 704 -128 1382 -128
C 2042 -128 2669 440 2669 1264
C 2669 2030 2170 2624 1549 2624
C 1222 2624 947 2503 730 2274
L 730 3692
z
" transform="scale(0.015625)"/>
       </defs>
       <use xlink:href="#CMR17-30" transform="scale(0.996264)"/>
       <use xlink:href="#CMMI12-3a" transform="translate(45.690477 0) scale(0.996264)"/>
       <use xlink:href="#CMR17-35" transform="translate(72.787654 0) scale(0.996264)"/>
      </g>
     </g>
    </g>
    <g id="text_14">
     <!-- $\tilde{\Omega}$ -->
     <g transform="translate(20.007076 99.509214) rotate(-90) scale(0.18 -0.18)">
      <defs>
       <path id="CMR17-a" d="M 4038 935
L 3923 935
C 3866 641 3846 563 3814 461
C 3782 365 3763 314 3392 314
L 2874 314
C 2944 686 3098 961 3366 1391
C 3699 1935 3974 2377 3974 2910
C 3974 3775 3155 4480 2138 4480
C 1094 4480 294 3768 294 2910
C 294 2377 576 1922 890 1416
C 1171 961 1325 686 1395 314
L 877 314
C 512 314 493 365 461 454
C 422 557 410 641 346 935
L 230 935
L 416 0
L 1382 0
C 1517 0 1523 6 1523 102
C 1523 558 1286 1154 1178 1429
C 973 1929 781 2416 781 2916
C 781 3871 1466 4377 2131 4377
C 2829 4377 3488 3851 3488 2916
C 3488 2422 3315 1981 3078 1397
C 2976 1135 2746 551 2746 102
C 2746 0 2752 0 2886 0
L 3853 0
L 4038 935
z
" transform="scale(0.015625)"/>
      </defs>
      <use xlink:href="#CMR17-7e" transform="translate(10.409709 25.175672) scale(0.996264)"/>
      <use xlink:href="#CMR17-a" transform="scale(0.996264)"/>
     </g>
    </g>
   </g>
   <g id="line2d_13">
    <path d="M 50.742973 173.788882
L 235.425076 46.575554
L 235.425076 46.575554
" clip-path="url(#pe9be34928e)" style="fill: none; stroke: #1f77b4; stroke-width: 2.5; stroke-linecap: square"/>
   </g>
   <g id="LineCollection_1">
    <path d="M 50.742973 113.211107
L 226.630691 113.211107
" clip-path="url(#pe9be34928e)" style="fill: none; stroke-dasharray: 5.55,2.4; stroke-dashoffset: 0; stroke: #808080; stroke-width: 1.5"/>
   </g>
   <g id="LineCollection_2">
    <path d="M 226.630691 173.788882
L 226.630691 -1
" clip-path="url(#pe9be34928e)" style="fill: none; stroke-dasharray: 5.55,2.4; stroke-dashoffset: 0; stroke: #808080; stroke-width: 1.5"/>
   </g>
   <g id="line2d_14">
    <defs>
     <path id="m07fd8c7c2e" d="M 0 3
C 0.795609 3 1.55874 2.683901 2.12132 2.12132
C 2.683901 1.55874 3 0.795609 3 0
C 3 -0.795609 2.683901 -1.55874 2.12132 -2.12132
C 1.55874 -2.683901 0.795609 -3 0 -3
C -0.795609 -3 -1.55874 -2.683901 -2.12132 -2.12132
C -2.683901 -1.55874 -3 -0.795609 -3 0
C -3 0.795609 -2.683901 1.55874 -2.12132 2.12132
C -1.55874 2.683901 -0.795609 3 0 3
z
" style="stroke: #ff7f0e"/>
    </defs>
    <g clip-path="url(#pe9be34928e)">
     <use xlink:href="#m07fd8c7c2e" x="226.630691" y="52.633331" style="fill: #ff7f0e; stroke: #ff7f0e"/>
    </g>
   </g>
   <g id="line2d_15">
    <defs>
     <path id="mf04ff95eb6" d="M 0 3
C 0.795609 3 1.55874 2.683901 2.12132 2.12132
C 2.683901 1.55874 3 0.795609 3 0
C 3 -0.795609 2.683901 -1.55874 2.12132 -2.12132
C 1.55874 -2.683901 0.795609 -3 0 -3
C -0.795609 -3 -1.55874 -2.683901 -2.12132 -2.12132
C -2.683901 -1.55874 -3 -0.795609 -3 0
C -3 0.795609 -2.683901 1.55874 -2.12132 2.12132
C -1.55874 2.683901 -0.795609 3 0 3
z
" style="stroke: #2ca02c"/>
    </defs>
    <g clip-path="url(#pe9be34928e)">
     <use xlink:href="#mf04ff95eb6" x="138.686832" y="113.211107" style="fill: #2ca02c; stroke: #2ca02c"/>
    </g>
   </g>
   <g id="patch_4">
    <path d="M 47.225219 179.84666
L 47.225219 7.2
" style="fill: none; stroke: #000000; stroke-width: 0.8; stroke-linejoin: miter; stroke-linecap: square"/>
   </g>
   <g id="patch_5">
    <path d="M 235.425076 179.84666
L 235.425076 7.2
" style="fill: none; stroke: #000000; stroke-width: 0.8; stroke-linejoin: miter; stroke-linecap: square"/>
   </g>
   <g id="patch_6">
    <path d="M 47.225219 179.84666
L 235.425076 179.84666
" style="fill: none; stroke: #000000; stroke-width: 0.8; stroke-linejoin: miter; stroke-linecap: square"/>
   </g>
   <g id="patch_7">
    <path d="M 47.225219 7.2
L 235.425076 7.2
" style="fill: none; stroke: #000000; stroke-width: 0.8; stroke-linejoin: miter; stroke-linecap: square"/>
   </g>
   <g id="patch_8">
    <path d="M 209.113802 28.458009
Q 217.285285 39.735596 225.456768 51.013184
" style="fill: none; stroke: #000000; stroke-linecap: round"/>
   </g>
   <g id="text_15">
    <!-- $(1,0.4)$ -->
    <g transform="translate(187.935393 22.344444) scale(0.1 -0.1)">
     <defs>
      <path id="CMR17-28" d="M 1958 -1561
C 1958 -1555 1958 -1542 1939 -1523
C 1645 -1224 858 -407 858 1581
C 858 3569 1632 4379 1946 4697
C 1946 4704 1958 4717 1958 4736
C 1958 4755 1939 4768 1914 4768
C 1843 4768 1299 4296 986 3594
C 666 2887 576 2199 576 1588
C 576 1128 621 351 1005 -471
C 1312 -1135 1837 -1600 1914 -1600
C 1946 -1600 1958 -1587 1958 -1561
z
" transform="scale(0.015625)"/>
      <path id="CMMI12-3b" d="M 1248 -31
C 1248 343 1126 619 864 619
C 659 619 557 453 557 313
C 557 172 653 0 870 0
C 954 0 1024 26 1082 83
C 1094 96 1101 96 1107 96
C 1120 96 1120 5 1120 -27
C 1120 -240 1082 -659 710 -1080
C 640 -1157 640 -1170 640 -1183
C 640 -1216 672 -1248 704 -1248
C 755 -1248 1248 -771 1248 -31
z
" transform="scale(0.015625)"/>
      <path id="CMR17-29" d="M 1683 1581
C 1683 2040 1638 2817 1254 3639
C 947 4303 422 4768 346 4768
C 326 4768 301 4761 301 4729
C 301 4717 307 4710 314 4697
C 621 4378 1402 3568 1402 1584
C 1402 -407 627 -1217 314 -1537
C 307 -1549 301 -1556 301 -1568
C 301 -1600 326 -1600 346 -1600
C 416 -1600 960 -1128 1274 -426
C 1594 281 1683 969 1683 1581
z
" transform="scale(0.015625)"/>
     </defs>
     <use xlink:href="#CMR17-28" transform="scale(0.996264)"/>
     <use xlink:href="#CMR17-31" transform="translate(35.280768 0) scale(0.996264)"/>
     <use xlink:href="#CMMI12-3b" transform="translate(80.971245 0) scale(0.996264)"/>
     <use xlink:href="#CMR17-30" transform="translate(124.672827 0) scale(0.996264)"/>
     <use xlink:href="#CMMI12-3a" transform="translate(170.363304 0) scale(0.996264)"/>
     <use xlink:href="#CMR17-34" transform="translate(197.460481 0) scale(0.996264)"/>
     <use xlink:href="#CMR17-29" transform="translate(243.150959 0) scale(0.996264)"/>
    </g>
   </g>
   <g id="patch_9">
    <path d="M 118.575547 58.994235
Q 128.283194 85.164531 137.990842 111.334827
" style="fill: none; stroke: #000000; stroke-linecap: round"/>
   </g>
   <g id="text_16">
    <!-- $(0.5,0.2)$ -->
    <g transform="translate(96.47378 52.633331) scale(0.1 -0.1)">
     <use xlink:href="#CMR17-28" transform="scale(0.996264)"/>
     <use xlink:href="#CMR17-30" transform="translate(35.280768 0) scale(0.996264)"/>
     <use xlink:href="#CMMI12-3a" transform="translate(80.971245 0) scale(0.996264)"/>
     <use xlink:href="#CMR17-35" transform="translate(108.068422 0) scale(0.996264)"/>
     <use xlink:href="#CMMI12-3b" transform="translate(153.758899 0) scale(0.996264)"/>
     <use xlink:href="#CMR17-30" transform="translate(197.460481 0) scale(0.996264)"/>
     <use xlink:href="#CMMI12-3a" transform="translate(243.150959 0) scale(0.996264)"/>
     <use xlink:href="#CMR17-32" transform="translate(270.248136 0) scale(0.996264)"/>
     <use xlink:href="#CMR17-29" transform="translate(315.938613 0) scale(0.996264)"/>
    </g>
   </g>
   <g id="patch_10">
    <path d="M 224.985501 53.766577
Q 182.659175 82.921934 141.990176 110.935686
" style="fill: none; stroke: #000000; stroke-width: 1.8; stroke-linecap: round"/>
    <path d="M 146.418845 110.313678
L 141.990176 110.935686
L 144.149771 107.019546
" style="fill: none; stroke: #000000; stroke-width: 1.8; stroke-linecap: round"/>
   </g>
   <g id="legend_1">
    <g id="patch_11">
     <path d="M 246.189074 73.67416
L 341.783997 73.67416
Q 343.783997 73.67416 343.783997 71.67416
L 343.783997 14.2
Q 343.783997 12.2 341.783997 12.2
L 246.189074 12.2
Q 244.189074 12.2 244.189074 14.2
L 244.189074 71.67416
Q 244.189074 73.67416 246.189074 73.67416
z
" style="fill: #ffffff; opacity: 0.8; stroke: #cccccc; stroke-linejoin: miter"/>
    </g>
    <g id="patch_12">
     <path d="M 248.189074 23.2
L 268.189074 23.2
L 268.189074 16.2
L 248.189074 16.2
z
" style="fill: #2ca02c; opacity: 0.25; stroke: #808080; stroke-width: 1.5; stroke-linejoin: miter"/>
    </g>
    <g id="text_17">
     <!-- Allowed region -->
     <g transform="translate(276.189074 23.2) scale(0.1 -0.1)">
      <defs>
       <path id="CMSS17-41" d="M 2272 4416
L 1722 4416
L 166 0
L 653 0
L 1101 1280
L 2816 1280
L 3270 0
L 3827 0
L 2272 4416
z
M 2694 1637
L 1222 1637
C 1530 2528 1914 3638 1958 3925
L 1965 3925
C 2010 3663 2138 3281 2246 2956
L 2694 1637
z
" transform="scale(0.015625)"/>
       <path id="CMSS17-6c" d="M 947 4416
L 474 4416
L 474 0
L 947 0
L 947 4416
z
" transform="scale(0.015625)"/>
       <path id="CMSS17-6f" d="M 2829 1356
C 2829 2176 2221 2816 1504 2816
C 768 2816 173 2157 173 1356
C 173 544 787 -64 1498 -64
C 2227 -64 2829 563 2829 1356
z
M 1504 337
C 1050 337 659 709 659 1408
C 659 2151 1114 2427 1498 2427
C 1914 2427 2342 2126 2342 1408
C 2342 683 1926 337 1504 337
z
" transform="scale(0.015625)"/>
       <path id="CMSS17-77" d="M 4013 2752
L 3526 2752
L 3187 1601
C 3117 1358 2918 685 2893 371
L 2886 371
C 2874 564 2765 1024 2586 1633
L 2259 2752
L 1818 2752
L 1498 1658
C 1338 1101 1216 627 1203 371
L 1197 371
C 1171 749 909 1633 870 1773
L 582 2752
L 83 2752
L 915 0
L 1402 0
C 1734 1096 1990 1943 2010 2370
C 2022 2160 2131 1707 2195 1484
L 2618 0
L 3181 0
L 4013 2752
z
" transform="scale(0.015625)"/>
       <path id="CMSS17-65" d="M 2502 1377
C 2502 1590 2490 2003 2285 2345
C 2061 2713 1696 2816 1421 2816
C 755 2816 192 2188 192 1375
C 192 582 774 -64 1510 -64
C 1798 -64 2150 19 2470 248
C 2470 274 2458 414 2451 420
C 2451 433 2432 630 2432 656
C 2125 407 1773 325 1517 325
C 1107 325 666 667 646 1377
L 2502 1377
z
M 698 1728
C 781 2084 1062 2421 1421 2421
C 1517 2421 1965 2421 2080 1728
L 698 1728
z
" transform="scale(0.015625)"/>
       <path id="CMSS17-64" d="M 2611 4416
L 2138 4416
L 2138 2438
C 1939 2603 1613 2756 1254 2756
C 672 2756 211 2131 211 1347
C 211 562 666 -64 1235 -64
C 1677 -64 1971 172 2125 306
L 2125 -13
L 2611 -13
L 2611 4416
z
M 2125 836
C 2125 747 2125 653 1926 482
C 1798 375 1645 325 1498 325
C 1152 325 698 576 698 1340
C 698 2134 1210 2368 1562 2368
C 1798 2368 1990 2254 2125 2065
L 2125 836
z
" transform="scale(0.015625)"/>
       <path id="CMSS17-72" d="M 954 1363
C 954 1965 1395 2368 1958 2368
L 1958 2789
C 1549 2789 1165 2585 934 2253
L 934 2758
L 480 2758
L 480 0
L 954 0
L 954 1363
z
" transform="scale(0.015625)"/>
       <path id="CMSS17-67" d="M 2848 2808
C 2483 2808 2170 2738 1914 2617
C 1702 2777 1485 2808 1338 2808
C 781 2808 358 2349 358 1814
C 358 1468 550 1207 563 1195
C 448 1035 384 863 384 672
C 384 448 474 289 544 200
C 211 -3 166 -314 166 -435
C 166 -898 749 -1280 1498 -1280
C 2253 -1280 2835 -898 2835 -428
C 2835 448 1856 448 1587 448
L 1069 448
C 973 448 717 448 717 791
C 717 921 774 1004 781 1010
C 877 940 1075 832 1338 832
C 1869 832 2310 1278 2310 1827
C 2310 2132 2170 2355 2112 2432
L 2131 2432
C 2150 2432 2419 2432 2515 2432
C 2720 2432 2739 2429 2918 2419
L 2848 2808
z
M 1338 1182
C 1120 1182 813 1315 813 1823
C 813 2375 1165 2464 1331 2464
C 1549 2464 1856 2331 1856 1823
C 1856 1271 1504 1182 1338 1182
z
M 1581 -10
C 1734 -10 2381 -10 2381 -442
C 2381 -714 1984 -929 1504 -929
C 1018 -929 621 -720 621 -435
C 621 -403 621 -10 1062 -10
L 1581 -10
z
" transform="scale(0.015625)"/>
       <path id="CMSS17-69" d="M 979 4183
L 442 4183
L 442 3648
L 979 3648
L 979 4183
z
M 947 2739
L 474 2739
L 474 0
L 947 0
L 947 2739
z
" transform="scale(0.015625)"/>
       <path id="CMSS17-6e" d="M 2618 1877
C 2618 2283 2522 2816 1798 2816
C 1389 2816 1120 2606 941 2389
L 941 2758
L 474 2758
L 474 0
L 960 0
L 960 1559
C 960 1964 1114 2428 1549 2428
C 2112 2428 2131 2048 2131 1829
L 2131 0
L 2618 0
L 2618 1877
z
" transform="scale(0.015625)"/>
      </defs>
      <use xlink:href="#CMSS17-41" transform="scale(0.996264)"/>
      <use xlink:href="#CMSS17-6c" transform="translate(62.217855 0) scale(0.996264)"/>
      <use xlink:href="#CMSS17-6c" transform="translate(84.398578 0) scale(0.996264)"/>
      <use xlink:href="#CMSS17-6f" transform="translate(106.579301 0) scale(0.996264)"/>
      <use xlink:href="#CMSS17-77" transform="translate(150.820471 0) scale(0.996264)"/>
      <use xlink:href="#CMSS17-65" transform="translate(212.037562 0) scale(0.996264)"/>
      <use xlink:href="#CMSS17-64" transform="translate(253.676384 0) scale(0.996264)"/>
      <use xlink:href="#CMSS17-72" transform="translate(333.11044 0) scale(0.996264)"/>
      <use xlink:href="#CMSS17-65" transform="translate(365.020212 0) scale(0.996264)"/>
      <use xlink:href="#CMSS17-67" transform="translate(406.659034 0) scale(0.996264)"/>
      <use xlink:href="#CMSS17-69" transform="translate(453.502658 0) scale(0.996264)"/>
      <use xlink:href="#CMSS17-6f" transform="translate(475.683381 0) scale(0.996264)"/>
      <use xlink:href="#CMSS17-6e" transform="translate(522.527004 0) scale(0.996264)"/>
     </g>
    </g>
    <g id="line2d_16">
     <path d="M 248.189074 35.809143
L 258.189074 35.809143
L 268.189074 35.809143
" style="fill: none; stroke: #1f77b4; stroke-width: 2.5; stroke-linecap: square"/>
    </g>
    <g id="text_18">
     <!-- $\tilde{\Omega}/\tilde{J} = 0.4$ -->
     <g transform="translate(276.189074 39.309143) scale(0.1 -0.1)">
      <defs>
       <path id="CMMI12-3d" d="M 2746 4562
C 2746 4569 2784 4666 2784 4678
C 2784 4755 2720 4800 2669 4800
C 2637 4800 2579 4800 2528 4659
L 384 -1363
C 384 -1370 346 -1465 346 -1478
C 346 -1555 410 -1600 461 -1600
C 499 -1600 557 -1593 602 -1459
L 2746 4562
z
" transform="scale(0.015625)"/>
       <path id="CMR17-3d" d="M 4115 2017
C 4211 2017 4307 2017 4307 2125
C 4307 2240 4198 2240 4090 2240
L 512 2240
C 403 2240 294 2240 294 2125
C 294 2017 390 2017 486 2017
L 4115 2017
z
M 4090 896
C 4198 896 4307 896 4307 1011
C 4307 1119 4211 1119 4115 1119
L 486 1119
C 390 1119 294 1119 294 1011
C 294 896 403 896 512 896
L 4090 896
z
" transform="scale(0.015625)"/>
      </defs>
      <use xlink:href="#CMR17-7e" transform="translate(10.409709 25.175672) scale(0.996264)"/>
      <use xlink:href="#CMR17-a" transform="scale(0.996264)"/>
      <use xlink:href="#CMMI12-3d" transform="translate(66.509881 0) scale(0.996264)"/>
      <use xlink:href="#CMR17-7e" transform="translate(140.269202 25.189733) scale(0.996264)"/>
      <use xlink:href="#CMMI12-4a" transform="translate(115.284799 0) scale(0.996264)"/>
      <use xlink:href="#CMR17-3d" transform="translate(206.101479 0) scale(0.996264)"/>
      <use xlink:href="#CMR17-30" transform="translate(305.490276 0) scale(0.996264)"/>
      <use xlink:href="#CMMI12-3a" transform="translate(351.180753 0) scale(0.996264)"/>
      <use xlink:href="#CMR17-34" transform="translate(378.27793 0) scale(0.996264)"/>
     </g>
    </g>
    <g id="line2d_17">
     <g>
      <use xlink:href="#m07fd8c7c2e" x="258.189074" y="50.299803" style="fill: #ff7f0e; stroke: #ff7f0e"/>
     </g>
    </g>
    <g id="text_19">
     <!-- Initial point -->
     <g transform="translate(276.189074 53.799803) scale(0.1 -0.1)">
      <defs>
       <path id="CMSS17-49" d="M 1094 4416
L 557 4416
L 557 0
L 1094 0
L 1094 4416
z
" transform="scale(0.015625)"/>
       <path id="CMSS17-74" d="M 1069 2368
L 1901 2368
L 1901 2737
L 1069 2737
L 1069 3520
L 614 3520
L 614 2737
L 109 2737
L 109 2368
L 602 2368
L 602 749
C 602 384 685 -64 1107 -64
C 1427 -64 1722 25 2003 172
L 1901 548
C 1747 414 1562 337 1363 337
C 1082 337 1069 696 1069 856
L 1069 2368
z
" transform="scale(0.015625)"/>
       <path id="CMSS17-61" d="M 2406 1791
C 2406 2392 1978 2808 1402 2808
C 1120 2808 813 2757 461 2553
L 499 2135
C 659 2248 934 2432 1395 2432
C 1722 2432 1920 2180 1920 1782
L 1920 1536
C 896 1536 256 1238 256 726
C 256 461 416 -64 947 -64
C 1043 -64 1562 -64 1933 217
L 1933 -19
L 2406 -19
L 2406 1791
z
M 1920 816
C 1920 701 1920 548 1728 434
C 1562 325 1350 325 1261 325
C 941 325 723 511 723 744
C 723 1211 1722 1211 1920 1211
L 1920 816
z
" transform="scale(0.015625)"/>
       <path id="CMSS17-70" d="M 966 333
C 1178 129 1466 -5 1773 -5
C 2368 -5 2880 603 2880 1412
C 2880 2159 2496 2816 1946 2816
C 1626 2816 1242 2702 954 2472
L 954 2765
L 480 2765
L 480 -1216
L 966 -1216
L 966 333
z
M 966 2100
C 1018 2176 1235 2415 1587 2415
C 2035 2415 2394 1960 2394 1412
C 2394 787 1958 384 1530 384
C 1402 384 1267 415 1139 523
C 966 674 966 768 966 857
L 966 2100
z
" transform="scale(0.015625)"/>
      </defs>
      <use xlink:href="#CMSS17-49" transform="scale(0.996264)"/>
      <use xlink:href="#CMSS17-6e" transform="translate(25.783926 0) scale(0.996264)"/>
      <use xlink:href="#CMSS17-69" transform="translate(73.988869 0) scale(0.996264)"/>
      <use xlink:href="#CMSS17-74" transform="translate(96.169592 0) scale(0.996264)"/>
      <use xlink:href="#CMSS17-69" transform="translate(130.001158 0) scale(0.996264)"/>
      <use xlink:href="#CMSS17-61" transform="translate(152.181881 0) scale(0.996264)"/>
      <use xlink:href="#CMSS17-6c" transform="translate(197.103802 0) scale(0.996264)"/>
      <use xlink:href="#CMSS17-70" transform="translate(250.513638 0) scale(0.996264)"/>
      <use xlink:href="#CMSS17-6f" transform="translate(301.32102 0) scale(0.996264)"/>
      <use xlink:href="#CMSS17-69" transform="translate(348.164643 0) scale(0.996264)"/>
      <use xlink:href="#CMSS17-6e" transform="translate(370.345366 0) scale(0.996264)"/>
      <use xlink:href="#CMSS17-74" transform="translate(418.550309 0) scale(0.996264)"/>
     </g>
    </g>
    <g id="line2d_18">
     <g>
      <use xlink:href="#mf04ff95eb6" x="258.189074" y="64.236982" style="fill: #2ca02c; stroke: #2ca02c"/>
     </g>
    </g>
    <g id="text_20">
     <!-- Compiled point -->
     <g transform="translate(276.189074 67.736982) scale(0.1 -0.1)">
      <defs>
       <path id="CMSS17-43" d="M 3501 714
C 3072 427 2874 344 2355 344
C 1459 344 934 1303 934 2179
C 934 3112 1472 4032 2381 4032
C 2790 4032 3059 3918 3386 3715
L 3475 4217
C 3168 4370 2778 4440 2387 4440
C 1158 4440 397 3316 397 2179
C 397 927 1299 -64 2323 -64
C 2874 -64 3066 -19 3539 280
L 3501 714
z
" transform="scale(0.015625)"/>
       <path id="CMSS17-6d" d="M 4288 1877
C 4288 2308 4179 2816 3462 2816
C 2982 2816 2694 2516 2566 2331
C 2451 2670 2182 2816 1798 2816
C 1363 2816 1088 2568 941 2389
L 941 2758
L 474 2758
L 474 0
L 960 0
L 960 1559
C 960 1939 1101 2428 1555 2428
C 2138 2428 2138 2016 2138 1829
L 2138 0
L 2624 0
L 2624 1559
C 2624 1939 2765 2428 3219 2428
C 3802 2428 3802 2016 3802 1829
L 3802 0
L 4288 0
L 4288 1877
z
" transform="scale(0.015625)"/>
      </defs>
      <use xlink:href="#CMSS17-43" transform="scale(0.996264)"/>
      <use xlink:href="#CMSS17-6f" transform="translate(59.855772 0) scale(0.996264)"/>
      <use xlink:href="#CMSS17-6d" transform="translate(106.699395 0) scale(0.996264)"/>
      <use xlink:href="#CMSS17-70" transform="translate(180.92865 0) scale(0.996264)"/>
      <use xlink:href="#CMSS17-69" transform="translate(229.133593 0) scale(0.996264)"/>
      <use xlink:href="#CMSS17-6c" transform="translate(251.314316 0) scale(0.996264)"/>
      <use xlink:href="#CMSS17-65" transform="translate(273.495039 0) scale(0.996264)"/>
      <use xlink:href="#CMSS17-64" transform="translate(315.133861 0) scale(0.996264)"/>
      <use xlink:href="#CMSS17-70" transform="translate(394.567917 0) scale(0.996264)"/>
      <use xlink:href="#CMSS17-6f" transform="translate(445.375299 0) scale(0.996264)"/>
      <use xlink:href="#CMSS17-69" transform="translate(492.218922 0) scale(0.996264)"/>
      <use xlink:href="#CMSS17-6e" transform="translate(514.399645 0) scale(0.996264)"/>
      <use xlink:href="#CMSS17-74" transform="translate(562.604588 0) scale(0.996264)"/>
     </g>
    </g>
   </g>
  </g>
 </g>
 <defs>
  <clipPath id="pe9be34928e">
   <rect x="47.225219" y="7.2" width="188.199857" height="172.64666"/>
  </clipPath>
 </defs>
</svg>
