<?xml version="1.0" encoding="utf-8" standalone="no"?>
<!DOCTYPE svg PUBLIC "-//W3C//DTD SVG 1.1//EN"
  "http://www.w3.org/Graphics/SVG/1.1/DTD/svg11.dtd">
<svg xmlns:xlink="http://www.w3.org/1999/xlink" width="288pt" height="180pt" viewBox="0 0 288 180" xmlns="http://www.w3.org/2000/svg" version="1.1">
 <metadata>
  <rdf:RDF xmlns:dc="http://purl.org/dc/elements/1.1/" xmlns:cc="http://creativecommons.org/ns#" xmlns:rdf="http://www.w3.org/1999/02/22-rdf-syntax-ns#">
   <cc:Work>
    <dc:type rdf:resource="http://purl.org/dc/dcmitype/StillImage"/>
    <dc:date>2026-03-06T14:11:26.343154</dc:date>
    <dc:format>image/svg+xml</dc:format>
    <dc:creator>
     <cc:Agent>
      <dc:title>Matplotlib v3.10.6, https://matplotlib.org/</dc:title>
     </cc:Agent>
    </dc:creator>
   </cc:Work>
  </rdf:RDF>
 </metadata>
 <defs>
  <style type="text/css">*{stroke-linejoin: round; stroke-linecap: butt}</style>
 </defs>
 <g id="figure_1">
  <g id="patch_1">
   <path d="M 0 180
L 288 180
L 288 0
L 0 0
z
" style="fill: #ffffff"/>
  </g>
  <g id="axes_1">
   <g id="patch_2">
    <path d="M 44.492719 139.381683
L 186.545962 139.381683
L 186.545962 10.8
L 44.492719 10.8
z
" style="fill: #ffffff"/>
   </g>
   <g id="patch_3">
    <path d="M 44.492719 139.381683
L 162.870422 139.381683
L 162.870422 32.230281
L 44.492719 32.230281
z
" clip-path="url(#pdc48d1f833)" style="fill: #2ca02c; opacity: 0.25; stroke: #808080; stroke-linejoin: miter"/>
   </g>
   <g id="matplotlib.axis_1">
    <g id="xtick_1">
     <g id="line2d_1">
      <defs>
       <path id="m5d3db46d2d" d="M 0 0
L 0 3.5
" style="stroke: #000000; stroke-width: 0.8"/>
      </defs>
      <g>
       <use xlink:href="#m5d3db46d2d" x="44.492719" y="139.381683" style="stroke: #000000; stroke-width: 0.8"/>
      </g>
     </g>
     <g id="text_1">
      <!-- $\mathdefault{0}$ -->
      <g transform="translate(42.002051 153.300182) scale(0.1 -0.1)">
       <defs>
        <path id="CMR17-30" d="M 2688 2025
C 2688 2416 2682 3080 2413 3591
C 2176 4039 1798 4198 1466 4198
C 1158 4198 768 4058 525 3597
C 269 3118 243 2524 243 2025
C 243 1661 250 1106 448 619
C 723 -39 1216 -128 1466 -128
C 1760 -128 2208 -7 2470 600
C 2662 1042 2688 1559 2688 2025
z
M 1466 -26
C 1056 -26 813 325 723 812
C 653 1188 653 1738 653 2096
C 653 2588 653 2997 736 3387
C 858 3929 1216 4096 1466 4096
C 1728 4096 2067 3923 2189 3400
C 2272 3036 2278 2607 2278 2096
C 2278 1680 2278 1169 2202 792
C 2067 95 1690 -26 1466 -26
z
" transform="scale(0.015625)"/>
       </defs>
       <use xlink:href="#CMR17-30" transform="scale(0.996264)"/>
      </g>
     </g>
    </g>
    <g id="xtick_2">
     <g id="line2d_2">
      <g>
       <use xlink:href="#m5d3db46d2d" x="103.68157" y="139.381683" style="stroke: #000000; stroke-width: 0.8"/>
      </g>
     </g>
     <g id="text_2">
      <!-- $\mathdefault{5}$ -->
      <g transform="translate(101.190903 153.300182) scale(0.1 -0.1)">
       <defs>
        <path id="CMR17-35" d="M 730 3692
C 794 3666 1056 3584 1325 3584
C 1920 3584 2246 3911 2432 4100
C 2432 4157 2432 4192 2394 4192
C 2387 4192 2374 4192 2323 4163
C 2099 4058 1837 3973 1517 3973
C 1325 3973 1037 3999 723 4139
C 653 4171 640 4171 634 4171
C 602 4171 595 4164 595 4037
L 595 2203
C 595 2089 595 2057 659 2057
C 691 2057 704 2070 736 2114
C 941 2401 1222 2522 1542 2522
C 1766 2522 2246 2382 2246 1289
C 2246 1085 2246 715 2054 421
C 1894 159 1645 25 1370 25
C 947 25 518 320 403 814
C 429 807 480 795 506 795
C 589 795 749 840 749 1038
C 749 1210 627 1280 506 1280
C 358 1280 262 1190 262 1011
C 262 454 704 -128 1382 -128
C 2042 -128 2669 440 2669 1264
C 2669 2030 2170 2624 1549 2624
C 1222 2624 947 2503 730 2274
L 730 3692
z
" transform="scale(0.015625)"/>
       </defs>
       <use xlink:href="#CMR17-35" transform="scale(0.996264)"/>
      </g>
     </g>
    </g>
    <g id="xtick_3">
     <g id="line2d_3">
      <g>
       <use xlink:href="#m5d3db46d2d" x="162.870422" y="139.381683" style="stroke: #000000; stroke-width: 0.8"/>
      </g>
     </g>
     <g id="text_3">
      <!-- $\mathdefault{10}$ -->
      <g transform="translate(157.889086 153.300182) scale(0.1 -0.1)">
       <defs>
        <path id="CMR17-31" d="M 1702 4058
C 1702 4192 1696 4192 1606 4192
C 1357 3916 979 3827 621 3827
C 602 3827 570 3827 563 3808
C 557 3795 557 3782 557 3648
C 755 3648 1088 3686 1344 3839
L 1344 461
C 1344 236 1331 160 781 160
L 589 160
L 589 0
C 896 0 1216 0 1523 0
C 1830 0 2150 0 2458 0
L 2458 160
L 2266 160
C 1715 160 1702 230 1702 458
L 1702 4058
z
" transform="scale(0.015625)"/>
       </defs>
       <use xlink:href="#CMR17-31" transform="scale(0.996264)"/>
       <use xlink:href="#CMR17-30" transform="translate(45.690477 0) scale(0.996264)"/>
      </g>
     </g>
    </g>
    <g id="text_4">
     <!-- $J$ [MHz] -->
     <g transform="translate(97.686867 166.70934) scale(0.1 -0.1)">
      <defs>
       <path id="CMMI12-4a" d="M 3418 3912
C 3469 4103 3482 4167 3795 4167
C 3898 4167 3962 4167 3962 4282
C 3962 4352 3904 4352 3878 4352
C 3770 4352 3648 4352 3533 4352
L 3181 4352
C 2912 4352 2630 4352 2362 4352
C 2304 4352 2227 4352 2227 4237
C 2227 4173 2278 4173 2278 4167
L 2438 4167
C 2950 4167 2950 4116 2950 4020
C 2950 4013 2950 3969 2925 3868
L 2189 960
C 2022 312 1594 0 1286 0
C 1069 0 762 100 685 431
C 710 424 742 418 768 418
C 979 418 1146 603 1146 788
C 1146 890 1082 1024 890 1024
C 774 1024 506 961 506 549
C 506 151 838 -128 1299 -128
C 1882 -128 2509 311 2662 915
L 3418 3912
z
" transform="scale(0.015625)"/>
       <path id="CMSS17-5b" d="M 1613 -1600
L 1613 -1212
L 1062 -1212
L 1062 4352
L 1613 4352
L 1613 4741
L 595 4741
L 595 -1600
L 1613 -1600
z
" transform="scale(0.015625)"/>
       <path id="CMSS17-4d" d="M 3194 2371
L 2886 1473
C 2835 1307 2662 791 2624 587
L 2618 587
C 2598 715 2560 849 2458 1174
C 2400 1365 2336 1562 2272 1741
L 1325 4416
L 576 4416
L 576 0
L 1075 0
L 1075 3900
L 1082 3900
C 1082 3894 1139 3613 1530 2499
L 2374 96
L 2848 96
L 3610 2231
C 3661 2378 3821 2843 3891 3066
C 3955 3257 4115 3728 4154 3913
L 4160 3913
L 4160 0
L 4666 0
L 4666 4416
L 3923 4416
L 3194 2371
z
" transform="scale(0.015625)"/>
       <path id="CMSS17-48" d="M 3674 4416
L 3136 4416
L 3136 2501
L 1101 2501
L 1101 4416
L 563 4416
L 563 0
L 1101 0
L 1101 2112
L 3136 2112
L 3136 0
L 3674 0
L 3674 4416
z
" transform="scale(0.015625)"/>
       <path id="CMSS17-7a" d="M 2400 2502
L 2400 2750
L 250 2750
L 250 2368
L 1069 2368
C 1146 2368 1222 2368 1299 2368
L 1747 2368
L 166 261
L 166 0
L 2419 0
L 2419 395
L 1549 395
C 1472 395 1395 395 1318 395
L 826 395
L 2400 2502
z
" transform="scale(0.015625)"/>
       <path id="CMSS17-5d" d="M 1146 4741
L 128 4741
L 128 4352
L 678 4352
L 678 -1212
L 128 -1212
L 128 -1600
L 1146 -1600
L 1146 4741
z
" transform="scale(0.015625)"/>
      </defs>
      <use xlink:href="#CMMI12-4a" transform="scale(0.996264)"/>
      <use xlink:href="#CMSS17-5b" transform="translate(94.371783 0) scale(0.996264)"/>
      <use xlink:href="#CMSS17-4d" transform="translate(121.557222 0) scale(0.996264)"/>
      <use xlink:href="#CMSS17-48" transform="translate(203.233252 0) scale(0.996264)"/>
      <use xlink:href="#CMSS17-7a" transform="translate(269.294771 0) scale(0.996264)"/>
      <use xlink:href="#CMSS17-5d" transform="translate(309.972643 0) scale(0.996264)"/>
     </g>
    </g>
   </g>
   <g id="matplotlib.axis_2">
    <g id="ytick_1">
     <g id="line2d_4">
      <defs>
       <path id="ma3d67c0325" d="M 0 0
L -3.5 0
" style="stroke: #000000; stroke-width: 0.8"/>
      </defs>
      <g>
       <use xlink:href="#ma3d67c0325" x="44.492719" y="139.381683" style="stroke: #000000; stroke-width: 0.8"/>
      </g>
     </g>
     <g id="text_5">
      <!-- $\mathdefault{0.0}$ -->
      <g transform="translate(24.76264 142.840932) scale(0.1 -0.1)">
       <defs>
        <path id="CMMI12-3a" d="M 1178 307
C 1178 492 1024 619 870 619
C 685 619 557 466 557 313
C 557 128 710 0 864 0
C 1050 0 1178 153 1178 307
z
" transform="scale(0.015625)"/>
       </defs>
       <use xlink:href="#CMR17-30" transform="scale(0.996264)"/>
       <use xlink:href="#CMMI12-3a" transform="translate(45.690477 0) scale(0.996264)"/>
       <use xlink:href="#CMR17-30" transform="translate(72.787654 0) scale(0.996264)"/>
      </g>
     </g>
    </g>
    <g id="ytick_2">
     <g id="line2d_5">
      <g>
       <use xlink:href="#ma3d67c0325" x="44.492719" y="112.593833" style="stroke: #000000; stroke-width: 0.8"/>
      </g>
     </g>
     <g id="text_6">
      <!-- $\mathdefault{0.5}$ -->
      <g transform="translate(24.76264 116.053082) scale(0.1 -0.1)">
       <use xlink:href="#CMR17-30" transform="scale(0.996264)"/>
       <use xlink:href="#CMMI12-3a" transform="translate(45.690477 0) scale(0.996264)"/>
       <use xlink:href="#CMR17-35" transform="translate(72.787654 0) scale(0.996264)"/>
      </g>
     </g>
    </g>
    <g id="ytick_3">
     <g id="line2d_6">
      <g>
       <use xlink:href="#ma3d67c0325" x="44.492719" y="85.805982" style="stroke: #000000; stroke-width: 0.8"/>
      </g>
     </g>
     <g id="text_7">
      <!-- $\mathdefault{1.0}$ -->
      <g transform="translate(24.76264 89.265231) scale(0.1 -0.1)">
       <use xlink:href="#CMR17-31" transform="scale(0.996264)"/>
       <use xlink:href="#CMMI12-3a" transform="translate(45.690477 0) scale(0.996264)"/>
       <use xlink:href="#CMR17-30" transform="translate(72.787654 0) scale(0.996264)"/>
      </g>
     </g>
    </g>
    <g id="ytick_4">
     <g id="line2d_7">
      <g>
       <use xlink:href="#ma3d67c0325" x="44.492719" y="59.018131" style="stroke: #000000; stroke-width: 0.8"/>
      </g>
     </g>
     <g id="text_8">
      <!-- $\mathdefault{1.5}$ -->
      <g transform="translate(24.76264 62.47738) scale(0.1 -0.1)">
       <use xlink:href="#CMR17-31" transform="scale(0.996264)"/>
       <use xlink:href="#CMMI12-3a" transform="translate(45.690477 0) scale(0.996264)"/>
       <use xlink:href="#CMR17-35" transform="translate(72.787654 0) scale(0.996264)"/>
      </g>
     </g>
    </g>
    <g id="ytick_5">
     <g id="line2d_8">
      <g>
       <use xlink:href="#ma3d67c0325" x="44.492719" y="32.230281" style="stroke: #000000; stroke-width: 0.8"/>
      </g>
     </g>
     <g id="text_9">
      <!-- $\mathdefault{2.0}$ -->
      <g transform="translate(24.76264 35.68953) scale(0.1 -0.1)">
       <defs>
        <path id="CMR17-32" d="M 2669 989
L 2554 989
C 2490 536 2438 459 2413 420
C 2381 369 1920 369 1830 369
L 602 369
C 832 619 1280 1072 1824 1597
C 2214 1967 2669 2402 2669 3035
C 2669 3790 2067 4224 1395 4224
C 691 4224 262 3604 262 3030
C 262 2780 448 2748 525 2748
C 589 2748 781 2787 781 3010
C 781 3207 614 3264 525 3264
C 486 3264 448 3258 422 3245
C 544 3790 915 4058 1306 4058
C 1862 4058 2227 3617 2227 3035
C 2227 2479 1901 2000 1536 1584
L 262 146
L 262 0
L 2515 0
L 2669 989
z
" transform="scale(0.015625)"/>
       </defs>
       <use xlink:href="#CMR17-32" transform="scale(0.996264)"/>
       <use xlink:href="#CMMI12-3a" transform="translate(45.690477 0) scale(0.996264)"/>
       <use xlink:href="#CMR17-30" transform="translate(72.787654 0) scale(0.996264)"/>
      </g>
     </g>
    </g>
    <g id="text_10">
     <!-- $\Omega$ [MHz] -->
     <g transform="translate(18.27198 93.279622) rotate(-90) scale(0.1 -0.1)">
      <defs>
       <path id="CMR17-a" d="M 4038 935
L 3923 935
C 3866 641 3846 563 3814 461
C 3782 365 3763 314 3392 314
L 2874 314
C 2944 686 3098 961 3366 1391
C 3699 1935 3974 2377 3974 2910
C 3974 3775 3155 4480 2138 4480
C 1094 4480 294 3768 294 2910
C 294 2377 576 1922 890 1416
C 1171 961 1325 686 1395 314
L 877 314
C 512 314 493 365 461 454
C 422 557 410 641 346 935
L 230 935
L 416 0
L 1382 0
C 1517 0 1523 6 1523 102
C 1523 558 1286 1154 1178 1429
C 973 1929 781 2416 781 2916
C 781 3871 1466 4377 2131 4377
C 2829 4377 3488 3851 3488 2916
C 3488 2422 3315 1981 3078 1397
C 2976 1135 2746 551 2746 102
C 2746 0 2752 0 2886 0
L 3853 0
L 4038 935
z
" transform="scale(0.015625)"/>
      </defs>
      <use xlink:href="#CMR17-a" transform="scale(0.996264)"/>
      <use xlink:href="#CMSS17-5b" transform="translate(97.738993 0) scale(0.996264)"/>
      <use xlink:href="#CMSS17-4d" transform="translate(124.924432 0) scale(0.996264)"/>
      <use xlink:href="#CMSS17-48" transform="translate(206.600462 0) scale(0.996264)"/>
      <use xlink:href="#CMSS17-7a" transform="translate(272.661981 0) scale(0.996264)"/>
      <use xlink:href="#CMSS17-5d" transform="translate(313.339853 0) scale(0.996264)"/>
     </g>
    </g>
   </g>
   <g id="line2d_9">
    <path d="M 44.492719 139.381683
L 45.808027 133.428827
L 47.123335 127.475972
L 48.438642 121.523116
L 49.75395 115.57026
L 51.069258 109.617405
L 52.384566 103.664549
L 53.699874 97.711693
L 55.015182 91.758838
L 56.330489 85.805982
L 57.645797 79.853126
L 58.961105 73.90027
L 60.276413 67.947415
L 61.591721 61.994559
L 62.907028 56.041703
L 64.222336 50.088848
L 65.537644 44.135992
L 66.852952 38.183136
L 68.16826 32.230281
L 69.483567 26.277425
L 70.798875 20.324569
L 72.114183 14.371713
L 73.429491 8.418858
L 74.744799 2.466002
L 75.510626 -1
" clip-path="url(#pdc48d1f833)" style="fill: none; stroke: #1f77b4; stroke-width: 1.5; stroke-linecap: square"/>
   </g>
   <g id="line2d_10">
    <path d="M 44.492719 139.381683
L 45.808027 138.191112
L 47.123335 137.000541
L 48.438642 135.80997
L 49.75395 134.619399
L 51.069258 133.428827
L 52.384566 132.238256
L 53.699874 131.047685
L 55.015182 129.857114
L 56.330489 128.666543
L 57.645797 127.475972
L 58.961105 126.285401
L 60.276413 125.09483
L 61.591721 123.904258
L 62.907028 122.713687
L 64.222336 121.523116
L 65.537644 120.332545
L 66.852952 119.141974
L 68.16826 117.951403
L 69.483567 116.760832
L 70.798875 115.57026
L 72.114183 114.379689
L 73.429491 113.189118
L 74.744799 111.998547
L 76.060106 110.807976
L 77.375414 109.617405
L 78.690722 108.426834
L 80.00603 107.236262
L 81.321338 106.045691
L 82.636645 104.85512
L 83.951953 103.664549
L 85.267261 102.473978
L 86.582569 101.283407
L 87.897877 100.092836
L 89.213184 98.902264
L 90.528492 97.711693
L 91.8438 96.521122
L 93.159108 95.330551
L 94.474416 94.13998
L 95.789724 92.949409
L 97.105031 91.758838
L 98.420339 90.568266
L 99.735647 89.377695
L 101.050955 88.187124
L 102.366263 86.996553
L 103.68157 85.805982
L 104.996878 84.615411
L 106.312186 83.42484
L 107.627494 82.234268
L 108.942802 81.043697
L 110.258109 79.853126
L 111.573417 78.662555
L 112.888725 77.471984
L 114.204033 76.281413
L 115.519341 75.090842
L 116.834648 73.90027
L 118.149956 72.709699
L 119.465264 71.519128
L 120.780572 70.328557
L 122.09588 69.137986
L 123.411187 67.947415
L 124.726495 66.756844
L 126.041803 65.566272
L 127.357111 64.375701
L 128.672419 63.18513
L 129.987726 61.994559
L 131.303034 60.803988
L 132.618342 59.613417
L 133.93365 58.422846
L 135.248958 57.232274
L 136.564266 56.041703
L 137.879573 54.851132
L 139.194881 53.660561
L 140.510189 52.46999
L 141.825497 51.279419
L 143.140805 50.088848
L 144.456112 48.898277
L 145.77142 47.707705
L 147.086728 46.517134
L 148.402036 45.326563
L 149.717344 44.135992
L 151.032651 42.945421
L 152.347959 41.75485
L 153.663267 40.564279
L 154.978575 39.373707
L 156.293883 38.183136
L 157.60919 36.992565
L 158.924498 35.801994
L 160.239806 34.611423
L 161.555114 33.420852
L 162.870422 32.230281
L 164.185729 31.039709
L 165.501037 29.849138
L 166.816345 28.658567
L 168.131653 27.467996
L 169.446961 26.277425
L 170.762268 25.086854
L 172.077576 23.896283
L 173.392884 22.705711
L 174.708192 21.51514
" clip-path="url(#pdc48d1f833)" style="fill: none; stroke: #ff7f0e; stroke-width: 1.5; stroke-linecap: square"/>
   </g>
   <g id="line2d_11">
    <path d="M 44.492719 139.381683
L 45.808027 139.08404
L 47.123335 138.786398
L 48.438642 138.488755
L 49.75395 138.191112
L 51.069258 137.893469
L 52.384566 137.595826
L 53.699874 137.298184
L 55.015182 137.000541
L 56.330489 136.702898
L 57.645797 136.405255
L 58.961105 136.107613
L 60.276413 135.80997
L 61.591721 135.512327
L 62.907028 135.214684
L 64.222336 134.917041
L 65.537644 134.619399
L 66.852952 134.321756
L 68.16826 134.024113
L 69.483567 133.72647
L 70.798875 133.428827
L 72.114183 133.131185
L 73.429491 132.833542
L 74.744799 132.535899
L 76.060106 132.238256
L 77.375414 131.940614
L 78.690722 131.642971
L 80.00603 131.345328
L 81.321338 131.047685
L 82.636645 130.750042
L 83.951953 130.4524
L 85.267261 130.154757
L 86.582569 129.857114
L 87.897877 129.559471
L 89.213184 129.261828
L 90.528492 128.964186
L 91.8438 128.666543
L 93.159108 128.3689
L 94.474416 128.071257
L 95.789724 127.773615
L 97.105031 127.475972
L 98.420339 127.178329
L 99.735647 126.880686
L 101.050955 126.583043
L 102.366263 126.285401
L 103.68157 125.987758
L 104.996878 125.690115
L 106.312186 125.392472
L 107.627494 125.09483
L 108.942802 124.797187
L 110.258109 124.499544
L 111.573417 124.201901
L 112.888725 123.904258
L 114.204033 123.606616
L 115.519341 123.308973
L 116.834648 123.01133
L 118.149956 122.713687
L 119.465264 122.416044
L 120.780572 122.118402
L 122.09588 121.820759
L 123.411187 121.523116
L 124.726495 121.225473
L 126.041803 120.927831
L 127.357111 120.630188
L 128.672419 120.332545
L 129.987726 120.034902
L 131.303034 119.737259
L 132.618342 119.439617
L 133.93365 119.141974
L 135.248958 118.844331
L 136.564266 118.546688
L 137.879573 118.249045
L 139.194881 117.951403
L 140.510189 117.65376
L 141.825497 117.356117
L 143.140805 117.058474
L 144.456112 116.760832
L 145.77142 116.463189
L 147.086728 116.165546
L 148.402036 115.867903
L 149.717344 115.57026
L 151.032651 115.272618
L 152.347959 114.974975
L 153.663267 114.677332
L 154.978575 114.379689
L 156.293883 114.082046
L 157.60919 113.784404
L 158.924498 113.486761
L 160.239806 113.189118
L 161.555114 112.891475
L 162.870422 112.593833
L 164.185729 112.29619
L 165.501037 111.998547
L 166.816345 111.700904
L 168.131653 111.403261
L 169.446961 111.105619
L 170.762268 110.807976
L 172.077576 110.510333
L 173.392884 110.21269
L 174.708192 109.915047
" clip-path="url(#pdc48d1f833)" style="fill: none; stroke: #2ca02c; stroke-width: 1.5; stroke-linecap: square"/>
   </g>
   <g id="LineCollection_1">
    <path d="M 44.492719 32.230281
L 162.870422 32.230281
" clip-path="url(#pdc48d1f833)" style="fill: none; stroke-dasharray: 5.55,2.4; stroke-dashoffset: 0; stroke: #808080; stroke-width: 1.5"/>
   </g>
   <g id="LineCollection_2">
    <path d="M 162.870422 139.381683
L 162.870422 32.230281
" clip-path="url(#pdc48d1f833)" style="fill: none; stroke-dasharray: 5.55,2.4; stroke-dashoffset: 0; stroke: #808080; stroke-width: 1.5"/>
   </g>
   <g id="patch_4">
    <path d="M 44.492719 139.381683
L 44.492719 10.8
" style="fill: none; stroke: #000000; stroke-width: 0.8; stroke-linejoin: miter; stroke-linecap: square"/>
   </g>
   <g id="patch_5">
    <path d="M 186.545962 139.381683
L 186.545962 10.8
" style="fill: none; stroke: #000000; stroke-width: 0.8; stroke-linejoin: miter; stroke-linecap: square"/>
   </g>
   <g id="patch_6">
    <path d="M 44.492719 139.381683
L 186.545962 139.381683
" style="fill: none; stroke: #000000; stroke-width: 0.8; stroke-linejoin: miter; stroke-linecap: square"/>
   </g>
   <g id="patch_7">
    <path d="M 44.492719 10.8
L 186.545962 10.8
" style="fill: none; stroke: #000000; stroke-width: 0.8; stroke-linejoin: miter; stroke-linecap: square"/>
   </g>
   <g id="legend_1">
    <g id="patch_8">
     <path d="M 193.545962 82.725053
L 275.2 82.725053
Q 277.2 82.725053 277.2 80.725053
L 277.2 17.8
Q 277.2 15.8 275.2 15.8
L 193.545962 15.8
Q 191.545962 15.8 191.545962 17.8
L 191.545962 80.725053
Q 191.545962 82.725053 193.545962 82.725053
z
" style="fill: #ffffff; opacity: 0.8; stroke: #cccccc; stroke-linejoin: miter"/>
    </g>
    <g id="line2d_12">
     <path d="M 195.545962 25.471965
L 205.545962 25.471965
L 215.545962 25.471965
" style="fill: none; stroke: #1f77b4; stroke-width: 1.5; stroke-linecap: square"/>
    </g>
    <g id="text_11">
     <!-- $\tilde\Omega/\tilde J = 1$ -->
     <g transform="translate(223.545962 28.971965) scale(0.1 -0.1)">
      <defs>
       <path id="CMR17-7e" d="M 2400 4184
C 2182 3980 2061 3865 1862 3865
C 1722 3865 1626 3932 1491 4024
C 1363 4111 1261 4184 1120 4184
C 890 4184 730 4004 461 3718
L 531 3648
C 749 3850 870 3968 1069 3968
C 1210 3968 1306 3900 1440 3808
C 1568 3722 1670 3648 1811 3648
C 2042 3648 2202 3828 2470 4114
L 2400 4184
z
" transform="scale(0.015625)"/>
       <path id="CMMI12-3d" d="M 2746 4562
C 2746 4569 2784 4666 2784 4678
C 2784 4755 2720 4800 2669 4800
C 2637 4800 2579 4800 2528 4659
L 384 -1363
C 384 -1370 346 -1465 346 -1478
C 346 -1555 410 -1600 461 -1600
C 499 -1600 557 -1593 602 -1459
L 2746 4562
z
" transform="scale(0.015625)"/>
       <path id="CMR17-3d" d="M 4115 2017
C 4211 2017 4307 2017 4307 2125
C 4307 2240 4198 2240 4090 2240
L 512 2240
C 403 2240 294 2240 294 2125
C 294 2017 390 2017 486 2017
L 4115 2017
z
M 4090 896
C 4198 896 4307 896 4307 1011
C 4307 1119 4211 1119 4115 1119
L 486 1119
C 390 1119 294 1119 294 1011
C 294 896 403 896 512 896
L 4090 896
z
" transform="scale(0.015625)"/>
      </defs>
      <use xlink:href="#CMR17-7e" transform="translate(10.409709 25.175672) scale(0.996264)"/>
      <use xlink:href="#CMR17-a" transform="scale(0.996264)"/>
      <use xlink:href="#CMMI12-3d" transform="translate(66.509881 0) scale(0.996264)"/>
      <use xlink:href="#CMR17-7e" transform="translate(140.269202 25.189733) scale(0.996264)"/>
      <use xlink:href="#CMMI12-4a" transform="translate(115.284799 0) scale(0.996264)"/>
      <use xlink:href="#CMR17-3d" transform="translate(206.101479 0) scale(0.996264)"/>
      <use xlink:href="#CMR17-31" transform="translate(305.490276 0) scale(0.996264)"/>
     </g>
    </g>
    <g id="line2d_13">
     <path d="M 195.545962 42.13459
L 205.545962 42.13459
L 215.545962 42.13459
" style="fill: none; stroke: #ff7f0e; stroke-width: 1.5; stroke-linecap: square"/>
    </g>
    <g id="text_12">
     <!-- $\tilde\Omega/\tilde J = 0.2$ -->
     <g transform="translate(223.545962 45.63459) scale(0.1 -0.1)">
      <use xlink:href="#CMR17-7e" transform="translate(10.409709 25.175672) scale(0.996264)"/>
      <use xlink:href="#CMR17-a" transform="scale(0.996264)"/>
      <use xlink:href="#CMMI12-3d" transform="translate(66.509881 0) scale(0.996264)"/>
      <use xlink:href="#CMR17-7e" transform="translate(140.269202 25.189733) scale(0.996264)"/>
      <use xlink:href="#CMMI12-4a" transform="translate(115.284799 0) scale(0.996264)"/>
      <use xlink:href="#CMR17-3d" transform="translate(206.101479 0) scale(0.996264)"/>
      <use xlink:href="#CMR17-30" transform="translate(305.490276 0) scale(0.996264)"/>
      <use xlink:href="#CMMI12-3a" transform="translate(351.180753 0) scale(0.996264)"/>
      <use xlink:href="#CMR17-32" transform="translate(378.27793 0) scale(0.996264)"/>
     </g>
    </g>
    <g id="line2d_14">
     <path d="M 195.545962 58.797215
L 205.545962 58.797215
L 215.545962 58.797215
" style="fill: none; stroke: #2ca02c; stroke-width: 1.5; stroke-linecap: square"/>
    </g>
    <g id="text_13">
     <!-- $\tilde\Omega/\tilde J = 0.05$ -->
     <g transform="translate(223.545962 62.297215) scale(0.1 -0.1)">
      <use xlink:href="#CMR17-7e" transform="translate(10.409709 25.175672) scale(0.996264)"/>
      <use xlink:href="#CMR17-a" transform="scale(0.996264)"/>
      <use xlink:href="#CMMI12-3d" transform="translate(66.509881 0) scale(0.996264)"/>
      <use xlink:href="#CMR17-7e" transform="translate(140.269202 25.189733) scale(0.996264)"/>
      <use xlink:href="#CMMI12-4a" transform="translate(115.284799 0) scale(0.996264)"/>
      <use xlink:href="#CMR17-3d" transform="translate(206.101479 0) scale(0.996264)"/>
      <use xlink:href="#CMR17-30" transform="translate(305.490276 0) scale(0.996264)"/>
      <use xlink:href="#CMMI12-3a" transform="translate(351.180753 0) scale(0.996264)"/>
      <use xlink:href="#CMR17-30" transform="translate(378.27793 0) scale(0.996264)"/>
      <use xlink:href="#CMR17-35" transform="translate(423.968407 0) scale(0.996264)"/>
     </g>
    </g>
    <g id="patch_9">
     <path d="M 195.545962 76.787875
L 215.545962 76.787875
L 215.545962 69.787875
L 195.545962 69.787875
z
" style="fill: #2ca02c; opacity: 0.25; stroke: #808080; stroke-linejoin: miter"/>
    </g>
    <g id="text_14">
     <!-- Device -->
     <g transform="translate(223.545962 76.787875) scale(0.1 -0.1)">
      <defs>
       <path id="CMSS17-44" d="M 570 4416
L 570 0
L 2144 0
C 3194 0 4000 980 4000 2170
C 4000 3398 3194 4416 2144 4416
L 570 4416
z
M 1094 357
L 1094 4059
L 2003 4059
C 2861 4059 3475 3277 3475 2170
C 3475 1107 2867 357 2003 357
L 1094 357
z
" transform="scale(0.015625)"/>
       <path id="CMSS17-65" d="M 2502 1377
C 2502 1590 2490 2003 2285 2345
C 2061 2713 1696 2816 1421 2816
C 755 2816 192 2188 192 1375
C 192 582 774 -64 1510 -64
C 1798 -64 2150 19 2470 248
C 2470 274 2458 414 2451 420
C 2451 433 2432 630 2432 656
C 2125 407 1773 325 1517 325
C 1107 325 666 667 646 1377
L 2502 1377
z
M 698 1728
C 781 2084 1062 2421 1421 2421
C 1517 2421 1965 2421 2080 1728
L 698 1728
z
" transform="scale(0.015625)"/>
       <path id="CMSS17-76" d="M 2675 2752
L 2176 2752
L 1747 1556
C 1613 1165 1421 627 1389 352
L 1382 352
C 1370 468 1318 634 1286 749
C 1248 890 1197 1056 1158 1172
L 595 2752
L 83 2752
L 1094 0
L 1664 0
L 2675 2752
z
" transform="scale(0.015625)"/>
       <path id="CMSS17-69" d="M 979 4183
L 442 4183
L 442 3648
L 979 3648
L 979 4183
z
M 947 2739
L 474 2739
L 474 0
L 947 0
L 947 2739
z
" transform="scale(0.015625)"/>
       <path id="CMSS17-63" d="M 2464 2541
C 2464 2585 2170 2714 2093 2739
C 1882 2816 1613 2816 1542 2816
C 710 2816 211 2093 211 1363
C 211 595 768 -64 1517 -64
C 1946 -64 2253 76 2502 242
L 2464 664
C 2189 453 1869 337 1523 337
C 1024 337 698 774 698 1369
C 698 1831 909 2414 1549 2414
C 1901 2414 2099 2343 2394 2145
L 2464 2541
z
" transform="scale(0.015625)"/>
      </defs>
      <use xlink:href="#CMSS17-44" transform="scale(0.996264)"/>
      <use xlink:href="#CMSS17-65" transform="translate(67.542842 0) scale(0.996264)"/>
      <use xlink:href="#CMSS17-76" transform="translate(109.181664 0) scale(0.996264)"/>
      <use xlink:href="#CMSS17-69" transform="translate(152.181805 0) scale(0.996264)"/>
      <use xlink:href="#CMSS17-63" transform="translate(174.362528 0) scale(0.996264)"/>
      <use xlink:href="#CMSS17-65" transform="translate(216.001351 0) scale(0.996264)"/>
     </g>
    </g>
   </g>
  </g>
 </g>
 <defs>
  <clipPath id="pdc48d1f833">
   <rect x="44.492719" y="10.8" width="142.053243" height="128.581683"/>
  </clipPath>
 </defs>
</svg>
