<?xml version="1.0" encoding="UTF-8" standalone="no"?>
<svg
   id="qoolqit_final"
   viewBox="0 0 411.06525 101.07469"
   version="1.1"
   sodipodi:docname="QoolQit-Black.svg"
   inkscape:version="1.2.2 (b0a84865, 2022-12-01)"
   xmlns:inkscape="http://www.inkscape.org/namespaces/inkscape"
   xmlns:sodipodi="http://sodipodi.sourceforge.net/DTD/sodipodi-0.dtd"
   xmlns="http://www.w3.org/2000/svg"
   xmlns:svg="http://www.w3.org/2000/svg">
  <sodipodi:namedview
     id="namedview211"
     pagecolor="#ffffff"
     bordercolor="#000000"
     borderopacity="0.25"
     inkscape:showpageshadow="2"
     inkscape:pageopacity="0.0"
     inkscape:pagecheckerboard="0"
     inkscape:deskcolor="#d1d1d1"
     showgrid="false"
     inkscape:zoom="1.4601449"
     inkscape:cx="131.15137"
     inkscape:cy="16.779157"
     inkscape:window-width="1512"
     inkscape:window-height="916"
     inkscape:window-x="0"
     inkscape:window-y="204"
     inkscape:window-maximized="0"
     inkscape:current-layer="qoolqit_final" />
  <defs
     id="defs184">
    <style
       id="style182">.cls-1{fill:#e1f6e9;}</style>
  </defs>
  <polygon
     class="cls-1"
     points="359.12106 77.75771 359.12106 77.77614 359.12106 77.80251 359.48074 78.16219 359.54904 78.16219 359.68728 78.16219 366.20437 78.16219 366.20437 37.22627 359.12106 37.22627 359.12106 77.75771"
     id="polygon186"
     style="fill:#000000;fill-opacity:1" />
  <polygon
     class="cls-1"
     points="359.12106 31.9706 359.12106 31.98207 359.12106 32.0154 359.48074 32.37508 359.58187 32.37508 359.68722 32.37508 366.20437 32.37508 366.20437 25.29292 359.12106 25.29292 359.12106 31.9706"
     id="polygon188"
     style="fill:#000000;fill-opacity:1" />
  <path
     class="cls-1"
     d="M199.86129,36.269c-6.84332,0-20.78802,2.61395-20.78802,21.40302s13.9447,21.40308,20.78802,21.40308,20.78802-2.61389,20.78802-21.40308-13.9447-21.40302-20.78802-21.40302ZM199.86129,73.57851c-6.92395,0-13.44098-4.44324-13.44098-15.90649s6.51703-15.90637,13.44098-15.90637,13.44098,4.44318,13.44098,15.90637-6.51703,15.90649-13.44098,15.90649Z"
     id="path190"
     style="fill:#000000;fill-opacity:1" />
  <path
     class="cls-1"
     d="M247.20541,36.269c-6.84332,0-20.78809,2.61395-20.78809,21.40302s13.94476,21.40308,20.78809,21.40308,20.78802-2.61389,20.78802-21.40308-13.9447-21.40302-20.78802-21.40302ZM247.20541,73.57851c-6.92395,0-13.44104-4.44324-13.44104-15.90649s6.51709-15.90637,13.44104-15.90637,13.44098,4.44318,13.44098,15.90637-6.51709,15.90649-13.44098,15.90649Z"
     id="path192"
     style="fill:#000000;fill-opacity:1" />
  <path
     class="cls-1"
     d="M172.73098,49.12892c-.02075-28.46362-23.29016-30.19983-29.15314-30.19983s-29.13239,1.73621-29.15314,30.19983h-.00092c0,.00635.00049.01215.00049.01849s-.00049.01215-.00049.01849h.00092c.01782,24.49487,17.24438,29.1925,25.78711,30.02704v4.23962c0,3.57758,2.91345,6.47772,6.50732,6.47772h12.20441v-5.57739h-11.65015v-5.17255c8.64917-.92432,25.43994-5.81372,25.45758-29.99445h.00092c0-.00635-.00049-.01215-.00049-.01849s.00049-.01215.00049-.01849h-.00092ZM143.57785,73.14864c-16.98578,0-21.23615-14.98926-21.24188-24.00122.00574-9.01196,4.2561-24.00122,21.24188-24.00122s21.23615,14.98926,21.24188,24.00122c-.00574,9.01196-4.25616,24.00122-21.24188,24.00122Z"
     id="path194"
     style="fill:#000000;fill-opacity:1" />
  <path
     class="cls-1"
     d="M350.37588,49.12892c-.02069-28.46362-23.2901-30.19983-29.15314-30.19983s-29.13239,1.73621-29.15308,30.19983h-.00092c0,.00635.00049.01215.00049.01849s-.00049.01215-.00049.01849h.00092c.01776,24.49487,17.24432,29.1925,25.78705,30.02704v4.23962c0,3.57758,2.91345,6.47772,6.50732,6.47772h12.20441v-5.57739h-11.65009v-5.17255c8.64911-.92432,25.43988-5.81372,25.45752-29.99445h.00092c0-.00635-.00049-.01215-.00049-.01849s.00049-.01215.00049-.01849h-.00092ZM321.22274,73.14864c-16.98572,0-21.23615-14.98926-21.24182-24.00122.00568-9.01196,4.2561-24.00122,21.24182-24.00122s21.23621,14.98926,21.24188,24.00122c-.00568,9.01196-4.2561,24.00122-21.24188,24.00122Z"
     id="path196"
     style="fill:#000000;fill-opacity:1" />
  <path
     class="cls-1"
     d="M400.35635,42.18428v-5.29047h-11.65015v-11.60706h-7.06158v11.26575l-.34125.34131h-7.92322v5.29047h8.26447v29.50018c0,3.57758,2.91345,6.47772,6.50732,6.47772h12.20441v-5.57739h-11.65015v-30.40051h11.65015Z"
     id="path198"
     style="fill:#000000;fill-opacity:1" />
  <rect
     class="cls-1"
     x="276.24118"
     y="20.52443"
     width="7.08331"
     height="57.78101"
     id="rect200"
     style="fill:#000000;fill-opacity:1" />
  <path
     class="cls-1"
     d="M18.69497,21.34249c1.82104-1.82104,1.82104-4.77466,0-6.5957s-4.77466-1.82104-6.5957,0c-1.82111,1.82104-1.82111,4.77466,0,6.5957,1.82104,1.82123,4.77466,1.82123,6.5957,0Z"
     id="path202"
     style="fill:#000000;fill-opacity:1" />
  <path
     class="cls-1"
     d="M12.09927,79.82997c-1.82111,1.82104-1.82111,4.77466,0,6.5957,1.82104,1.82123,4.77466,1.82123,6.5957,0,1.82104-1.82104,1.82104-4.77466,0-6.5957s-4.77466-1.82104-6.5957,0Z"
     id="path204"
     style="fill:#000000;fill-opacity:1" />
  <path
     class="cls-1"
     d="M77.18252,14.74678c-1.82104,1.82104-1.82104,4.77466,0,6.5957,1.82104,1.82123,4.77472,1.82123,6.59576,0,1.82104-1.82104,1.82104-4.77466,0-6.5957s-4.77472-1.82104-6.59576,0Z"
     id="path206"
     style="fill:#000000;fill-opacity:1" />
  <path
     class="cls-1"
     d="M83.77828,53.88411c1.82104-1.82104,1.82104-4.77472,0-6.59576-1.32318-1.32318-3.24097-1.672-4.89111-1.07233l-10.33582-10.21149c.6485-1.67078.30457-3.63867-1.04388-4.98712-1.36328-1.36328-3.36102-1.70502-5.0434-1.02716l-10.24133-10.1178c.72424-1.69958.40015-3.7395-.98615-5.12567-1.82104-1.82104-4.77472-1.82104-6.59576,0-1.32324,1.32324-1.672,3.24133-1.07214,4.89154l-10.21106,10.33539c-1.6709-.6488-3.63904-.30487-4.98761,1.0437-1.36328,1.36334-1.70508,3.36115-1.02716,5.04352l-10.1181,10.24115c-1.69952-.724-3.73938-.3999-5.12549.98621-1.82111,1.82104-1.82111,4.77466,0,6.59576,1.32306,1.32318,3.24084,1.672,4.89087,1.07245l10.33594,10.21161c-.64838,1.67072-.30438,3.63843,1.04395,4.98676,1.36346,1.36359,3.36163,1.70532,5.04419,1.02704l10.24078,10.11768c-.72449,1.69971-.40051,3.73987.98584,5.12622,1.82104,1.82104,4.77472,1.82104,6.59576,0,1.82117-1.82104,1.82117-4.77466,0-6.59576-1.32318-1.32318-3.24109-1.67194-4.89124-1.07227l-10.33588-10.21106c.6488-1.6709.30487-3.63904-1.0437-4.98761-1.36328-1.36328-3.36108-1.70508-5.04352-1.02716l-10.24146-10.11743c.46429-1.08929.48907-2.31372.08643-3.42175l10.21136-10.33569c1.67078.64862,3.63873.30469,4.98718-1.04388,1.36316-1.36316,1.70496-3.36066,1.02728-5.04303l10.11768-10.24164c1.08917.46417,2.31335.48889,3.4212.0863l10.33588,10.21155c-.64844,1.67072-.30444,3.63849,1.04395,4.98682,1.36322,1.36334,3.36084,1.70514,5.04315,1.02734l10.24146,10.11792c-.46405,1.08911-.48865,2.31311-.08618,3.4209l-10.21118,10.33594c-1.104-.42859-2.33673-.42633-3.43628.01703l-10.23993-10.11823c.72424-1.69958.40009-3.7395-.98621-5.12567-1.82104-1.82104-4.77472-1.82104-6.59576,0s-1.82104,4.77472,0,6.59576c1.32318,1.32318,3.24109,1.67194,4.89124,1.07227l10.33575,10.21149c-.6485,1.67072-.3045,3.63849,1.04395,4.98688,1.36334,1.36346,3.36127,1.7052,5.04364,1.02716l10.24133,10.11743c-.72449,1.69971-.40057,3.73993.98578,5.12628,1.82104,1.82123,4.77472,1.82123,6.59576,0,1.82104-1.82104,1.82104-4.77466,0-6.5957-1.3233-1.3233-3.24158-1.672-4.89178-1.07208l-10.33527-10.21143c.42853-1.1037.42633-2.336-.01666-3.4353l10.11755-10.24115c1.69971.72449,3.73987.40051,5.12616-.9859Z"
     id="path208"
     style="fill:#000000;fill-opacity:1" />
</svg>
