<?xml version="1.0" encoding="UTF-8" standalone="no"?>
<svg
   id="qoolqit_final"
   viewBox="0 0 74.410622 74.41062"
   version="1.1"
   sodipodi:docname="qoolqit_symbol_white.svg"
   inkscape:version="1.2.2 (b0a84865, 2022-12-01)"
   width="74.410622"
   height="74.410622"
   xmlns:inkscape="http://www.inkscape.org/namespaces/inkscape"
   xmlns:sodipodi="http://sodipodi.sourceforge.net/DTD/sodipodi-0.dtd"
   xmlns="http://www.w3.org/2000/svg"
   xmlns:svg="http://www.w3.org/2000/svg">
  <sodipodi:namedview
     id="namedview211"
     pagecolor="#ffffff"
     bordercolor="#000000"
     borderopacity="0.25"
     inkscape:showpageshadow="2"
     inkscape:pageopacity="0.0"
     inkscape:pagecheckerboard="0"
     inkscape:deskcolor="#d1d1d1"
     showgrid="false"
     inkscape:zoom="3.4294192"
     inkscape:cx="16.475093"
     inkscape:cy="65.171385"
     inkscape:window-width="1512"
     inkscape:window-height="916"
     inkscape:window-x="0"
     inkscape:window-y="204"
     inkscape:window-maximized="0"
     inkscape:current-layer="qoolqit_final" />
  <defs
     id="defs184">
    <style
       id="style182">.cls-1{fill:#e1f6e9;}</style>
  </defs>
  <path
     class="cls-1"
     d="m 7.9615325,7.96149 c 1.82104,-1.82104 1.82104,-4.77466 0,-6.5957 -1.82104,-1.82104 -4.77466,-1.82104 -6.5957,0 -1.82111,1.82104 -1.82111,4.77466 0,6.5957 1.82104,1.82123 4.77466,1.82123 6.5957,0 z"
     id="path202"
     style="fill:#ffffff;fill-opacity:1" />
  <path
     class="cls-1"
     d="m 1.3658325,66.44897 c -1.82111,1.82104 -1.82111,4.77466 0,6.5957 1.82104,1.82123 4.77466,1.82123 6.5957,0 1.82104,-1.82104 1.82104,-4.77466 0,-6.5957 -1.82104,-1.82104 -4.77466,-1.82104 -6.5957,0 z"
     id="path204"
     style="fill:#ffffff;fill-opacity:1" />
  <path
     class="cls-1"
     d="m 66.449082,1.36578 c -1.82104,1.82104 -1.82104,4.77466 0,6.5957 1.82104,1.82123 4.77472,1.82123 6.59576,0 1.82104,-1.82104 1.82104,-4.77466 0,-6.5957 -1.82104,-1.82104 -4.77472,-1.82104 -6.59576,0 z"
     id="path206"
     style="fill:#ffffff;fill-opacity:1" />
  <path
     class="cls-1"
     d="m 68.552385,40.089727 c 1.592774,-1.592771 1.592774,-4.176203 0,-5.768974 -1.15732,-1.157317 -2.834717,-1.462412 -4.278013,-0.937912 L 55.234139,24.451374 C 55.80135,22.990028 55.500531,21.268816 54.321108,20.089396 53.128714,18.897005 51.38139,18.598102 49.909895,19.190991 L 40.952307,10.34147 c 0.633458,-1.4865355 0.349992,-3.270749 -0.862537,-4.4831609 -1.592774,-1.5927705 -4.176212,-1.5927705 -5.768986,0 -1.157372,1.1573702 -1.462416,2.8350253 -0.937749,4.2783799 l -8.931111,9.039836 c -1.461454,-0.567472 -3.182889,-0.266654 -4.362417,0.912871 -1.192394,1.192443 -1.49135,2.939825 -0.898407,4.411308 l -8.849803,8.95741 c -1.4864869,-0.633246 -3.2706521,-0.349772 -4.4830143,0.862587 -1.5928353,1.59277 -1.5928353,4.176151 0,5.768973 1.1572155,1.157318 2.8346033,1.462413 4.2778033,0.938017 l 9.040338,8.931573 c -0.567105,1.461293 -0.266226,3.182348 0.913091,4.361663 1.192552,1.192663 2.940253,1.491556 4.411905,0.8983 l 8.957107,8.849416 c -0.633676,1.486649 -0.350307,3.271073 0.862266,4.483642 1.592773,1.59277 4.176213,1.59277 5.768987,0 1.592887,-1.59277 1.592887,-4.176151 0,-5.768973 -1.157321,-1.157318 -2.834822,-1.462361 -4.278128,-0.93786 L 26.771366,52.914361 C 27.33884,51.45291 27.038021,49.731479 25.858493,48.551954 24.666099,47.359563 22.918722,47.060608 21.447175,47.65355 l -8.957701,-8.849198 c 0.406092,-0.952746 0.427765,-2.023693 0.0756,-2.99283 l 8.931374,-9.040098 c 1.461349,0.567314 3.182618,0.266496 4.362041,-0.913029 1.192289,-1.192286 1.491244,-2.939397 0.898511,-4.41088 l 8.849437,-8.957838 c 0.952643,0.405986 2.023373,0.427607 2.992355,0.07548 l 9.040286,8.931519 c -0.567159,1.461294 -0.266279,3.182401 0.913091,4.361716 1.192342,1.192444 2.939562,1.491399 4.410996,0.898562 l 8.957701,8.849626 c -0.405882,0.952589 -0.427398,2.023159 -0.07538,2.992086 l -8.931216,9.040318 c -0.965615,-0.374866 -2.043823,-0.372889 -3.005545,0.0149 l -8.956365,-8.8499 c 0.633457,-1.486535 0.349939,-3.270749 -0.86259,-4.483161 -1.592774,-1.59277 -4.176212,-1.59277 -5.768986,0 -1.592774,1.592771 -1.592774,4.176203 0,5.768974 1.15732,1.157318 2.834822,1.46236 4.278127,0.93786 l 9.040171,8.931467 c -0.56721,1.461293 -0.26633,3.182401 0.913093,4.361768 1.192446,1.192549 2.939937,1.491451 4.411424,0.898404 l 8.957587,8.849198 c -0.633676,1.48665 -0.350359,3.271125 0.862213,4.483695 1.592775,1.592936 4.176213,1.592936 5.768987,0 1.592774,-1.592771 1.592774,-4.176151 0,-5.768921 -1.157425,-1.157423 -2.83525,-1.462413 -4.278599,-0.937694 L 55.234034,52.91416 c 0.374814,-0.96535 0.37289,-2.04318 -0.01457,-3.004681 l 8.849323,-8.95741 c 1.486653,0.633675 3.271081,0.350306 4.4836,-0.862316 z"
     id="path208"
     style="fill:#ffffff;fill-opacity:1;stroke-width:0.87465" />
</svg>
